# xmcd
#
# Track frame offsets:
# 150
# 13872
# 30334
# 45673
# 60852
# 75389
# 90891
# 107757
# 124992
# 140517
# 155075
# 172729
# 188096
# 208905
# 221052
# 236429
# 253202
# 267132
# 278501
# 292993
# 305577
#
# Disc length: 4263 seconds
#
#
# Revision: 0
# Processed by: cddbd v1.5.2PL0 Copyright (c) Steve Scherf et al.
# Submitted via: FreeRIP 2.951 
#
DISCID=1c10a515
DTITLE=Lua Morena - Vol II - Os Maiores Sucessos da Lua Morena
DYEAR=2007
DGENRE=Country
TTITLE0=Rick and Renner - Ela Só Quer Coisa
TTITLE1=Gino and Geno - Gavião
TTITLE2=Ricco and Léo - Casar Pra Que
TTITLE3=Bruno and Marrone e Tradição - Ta Pegando
TTITLE4=Cesar Menotti and Fabiano - Leilão
TTITLE5=Rio Negro and Solimões - Vida de cão
TTITLE6=Eduardo Costa - Me Apaixonei
TTITLE7=Bruno and Marrone - Mariane
TTITLE8=Zéze Di Camargo and Luciano - Diz Pro Meu Olhar
TTITLE9=Cezar Menotti and Fabiano - Palavras de Amor
TTITLE10=Rick and Renner - Se Aperta Ela Dá
TTITLE11=Pépe Moreno - Risca Faca
TTITLE12=Pépe Monero - Quer Beber
TTITLE13=Cesar Menotti and Fabiano - Bão Também
TTITLE14=Gino and Geno - Mulherada Dando Mole
TTITLE15=Rick and Renner - Eu e o Sabiá
TTITLE16=Bruno and  Marrone - Amor de Ping Pong
TTITLE17=Roberto Lucialdo - Oh Meu Imenso Amor
TTITLE18=João Dourado and Zito Moreno - Capricho de Mulher
TTITLE19=Almeida Jr. and Marechal - Só ta Faltando Você
TTITLE20=Walter Rabelo and Odair Jr. - Separados
EXTD=CD Promocional (Venda Proibida)
EXTT0=
EXTT1=
EXTT2=
EXTT3=
EXTT4=
EXTT5=
EXTT6=
EXTT7=
EXTT8=
EXTT9=
EXTT10=
EXTT11=
EXTT12=
EXTT13=
EXTT14=
EXTT15=
EXTT16=
EXTT17=
EXTT18=
EXTT19=
EXTT20=
PLAYORDER=
